<?xml version="1.0" standalone="no"?>
<!DOCTYPE svg PUBLIC "-//W3C//DTD SVG 20010904//EN"
 "http://www.w3.org/TR/2001/REC-SVG-20010904/DTD/svg10.dtd">
<svg version="1.0" xmlns="http://www.w3.org/2000/svg"
 width="942.000000pt" height="942.000000pt" viewBox="0 0 942.000000 942.000000"
 preserveAspectRatio="xMidYMid meet">
<metadata>
Created by potrace 1.11, written by Peter Selinger 2001-2013
</metadata>
<g transform="translate(0.000000,942.000000) scale(0.100000,-0.100000)"
fill="#000000" stroke="none">
<path d="M5505 9071 c-47 -23 -81 -53 -115 -101 -22 -30 -25 -45 -24 -110 1
-62 6 -84 29 -125 35 -64 78 -129 88 -133 4 -2 7 -8 7 -13 0 -6 9 -20 21 -32
45 -47 129 -176 164 -252 51 -107 52 -111 70 -180 26 -98 36 -183 38 -305 1
-107 -6 -190 -27 -300 -23 -122 -26 -132 -48 -205 -11 -38 -21 -76 -21 -82 0
-7 -3 -13 -7 -13 -3 0 -6 -10 -7 -21 -3 -37 -17 -41 -74 -19 -84 34 -256 90
-273 90 -9 0 -16 3 -16 8 0 4 -10 8 -23 9 -25 3 -45 7 -67 16 -27 11 -280 61
-360 72 -25 3 -58 7 -75 10 -141 18 -524 26 -670 12 -124 -11 -210 -22 -260
-33 -16 -4 -41 -8 -55 -9 -14 -1 -34 -5 -45 -8 -11 -4 -35 -9 -54 -12 -144
-24 -433 -119 -623 -205 -26 -11 -51 -20 -54 -20 -4 1 -10 -2 -13 -7 -3 -4
-42 -26 -85 -48 -85 -42 -228 -125 -236 -136 -3 -3 -16 -12 -29 -19 -14 -7
-30 -17 -35 -21 -6 -5 -25 -20 -42 -34 -18 -14 -37 -25 -43 -25 -6 0 -11 -4
-11 -10 0 -5 -4 -10 -10 -10 -5 0 -20 -9 -32 -19 -13 -11 -66 -55 -118 -99
-105 -88 -214 -193 -305 -297 -33 -37 -66 -74 -72 -81 -7 -7 -13 -15 -13 -19
0 -3 -10 -16 -22 -29 -33 -34 -42 -46 -131 -173 -20 -29 -37 -57 -37 -63 0 -5
-3 -10 -7 -10 -9 0 -36 -45 -128 -210 -11 -19 -22 -37 -25 -40 -8 -8 -84 -147
-128 -235 -9 -16 -19 -32 -22 -35 -4 -3 -11 -16 -15 -30 -4 -14 -12 -28 -17
-31 -5 -3 -10 -12 -12 -20 -1 -8 -8 -25 -16 -39 -19 -34 -120 -240 -120 -245
0 -3 -13 -32 -29 -65 -16 -33 -27 -60 -25 -60 2 0 -4 -17 -15 -37 -27 -55
-121 -300 -121 -318 0 -8 -4 -15 -9 -15 -5 0 -12 -15 -16 -32 -9 -40 -8 -35
-27 -79 -9 -20 -19 -47 -23 -60 -4 -13 -29 -70 -56 -126 -27 -56 -49 -107 -49
-113 0 -5 -4 -10 -9 -10 -5 0 -12 -8 -15 -17 -9 -24 -37 -77 -45 -83 -5 -4
-22 -34 -55 -95 -6 -11 -13 -22 -16 -25 -3 -3 -35 -50 -72 -105 -37 -55 -74
-109 -82 -120 -9 -11 -42 -56 -73 -100 -32 -44 -61 -82 -65 -83 -4 -2 -8 -8
-8 -12 0 -5 -23 -40 -50 -77 -28 -37 -54 -72 -58 -78 -23 -32 -62 -96 -62
-101 0 -4 -6 -15 -14 -23 -44 -51 -200 -398 -220 -492 -3 -13 -13 -49 -21 -79
-8 -30 -16 -66 -17 -80 -1 -14 -4 -29 -7 -35 -7 -13 -9 -28 -14 -91 -3 -29 -6
-56 -9 -60 -7 -14 -2 -264 7 -319 17 -116 28 -162 60 -265 30 -94 118 -283
146 -314 11 -11 19 -26 19 -33 0 -7 9 -21 20 -30 11 -10 20 -21 20 -26 0 -5 6
-14 13 -21 6 -7 23 -28 37 -47 45 -62 225 -236 310 -298 117 -87 274 -178 464
-270 204 -100 272 -131 279 -131 3 0 27 -10 54 -22 26 -11 57 -23 67 -25 11
-2 25 -8 33 -14 7 -6 13 -8 13 -4 0 4 6 3 13 -2 6 -6 64 -27 127 -47 63 -21
122 -40 130 -43 8 -3 20 -7 25 -8 6 -2 37 -10 70 -20 127 -36 265 -69 380 -91
11 -2 31 -6 45 -9 14 -3 39 -7 55 -9 28 -4 43 -6 130 -21 38 -7 111 -16 150
-20 147 -13 208 -18 255 -21 30 -1 55 -3 55 -4 0 -1 82 -2 183 -3 100 -1 182
1 182 5 0 4 11 3 25 -2 14 -5 25 -6 25 -2 0 4 21 7 48 8 42 1 141 8 257 19 22
2 60 6 85 10 25 4 55 9 67 10 13 2 42 7 65 11 24 4 51 9 61 10 9 1 18 2 20 4
1 1 16 3 32 5 17 2 82 16 145 30 63 15 122 29 130 30 8 1 22 5 30 8 14 5 106
30 123 33 4 1 8 2 10 4 1 1 9 3 17 5 8 2 24 6 35 9 11 2 40 12 65 21 25 9 52
18 60 20 34 7 267 98 377 146 201 89 570 287 581 311 2 5 8 8 14 8 11 0 100
59 110 74 4 6 8 7 8 3 0 -4 6 -3 13 3 6 6 42 32 78 58 84 60 116 83 139 102
10 8 35 29 56 45 65 51 176 147 237 205 92 86 227 220 227 224 0 2 19 24 43
48 48 51 151 171 216 254 52 66 163 221 220 309 39 61 75 115 79 120 4 6 11
17 15 25 4 8 15 29 25 45 11 17 34 59 53 95 19 36 38 68 42 71 5 3 8 8 7 10
-1 2 3 15 8 29 5 14 10 29 10 34 0 5 4 12 9 15 8 6 17 26 59 141 29 75 31 82
34 95 1 6 6 18 12 28 5 10 11 26 13 36 2 10 13 51 25 92 12 40 24 84 26 97 3
13 11 52 19 86 17 74 24 111 30 151 6 41 12 81 21 140 4 28 9 64 10 80 1 17 3
30 4 30 6 0 14 210 14 410 0 216 -6 354 -18 455 -3 19 -7 58 -10 85 -10 87
-22 165 -30 193 -3 9 -8 39 -11 66 -3 27 -7 52 -10 56 -2 4 -7 22 -9 41 -3 19
-15 72 -26 119 -12 47 -23 94 -25 105 -10 47 -32 119 -77 250 -26 77 -49 145
-51 150 -18 64 -158 360 -223 471 -22 39 -36 71 -30 72 6 0 58 3 116 6 141 7
259 16 290 21 14 3 45 7 70 9 97 10 167 20 250 36 30 7 69 14 85 16 117 20
466 127 473 145 2 5 8 7 13 3 5 -3 19 2 31 10 12 9 30 16 40 16 10 0 18 5 18
10 0 6 9 10 20 10 11 0 20 5 20 10 0 6 7 10 15 10 20 0 241 129 281 165 7 6
24 19 40 30 15 11 35 27 44 36 9 8 26 22 39 31 81 57 331 334 331 367 0 6 4
11 9 11 10 0 151 224 151 239 0 5 6 16 13 23 6 7 22 33 34 58 73 150 62 237
-36 304 -50 34 -151 86 -167 86 -7 0 -14 3 -16 8 -9 20 -288 100 -408 116
-176 25 -448 25 -590 1 -14 -2 -42 -6 -62 -9 -91 -14 -116 -19 -173 -31 -33
-8 -71 -16 -85 -19 -39 -8 -113 -27 -130 -33 -8 -3 -23 -8 -32 -9 -58 -12
-303 -97 -438 -152 -36 -15 -68 -26 -72 -24 -5 1 -8 -2 -8 -8 0 -6 -3 -9 -7
-8 -11 2 -77 -26 -233 -100 -41 -20 -77 -36 -80 -37 -6 -1 -235 -119 -302
-155 -26 -14 -74 -40 -107 -57 l-61 -33 -1 73 c-2 109 -15 302 -25 367 -3 19
-7 51 -9 70 -14 111 -52 289 -82 380 -34 101 -85 224 -95 228 -4 2 -8 10 -8
18 0 18 -113 200 -173 279 -4 5 -22 33 -40 60 -69 108 -176 212 -247 241 -44
18 -122 16 -165 -5z m2850 -1505 c39 -3 70 -5 70 -6 0 -1 23 -3 50 -6 28 -2
70 -8 95 -14 25 -5 56 -12 70 -14 58 -11 81 -17 105 -26 14 -5 25 -7 25 -4 0
4 6 1 13 -5 8 -6 17 -8 20 -4 4 3 7 2 7 -4 0 -14 -76 -92 -160 -164 -150 -129
-317 -232 -530 -327 -73 -32 -250 -90 -330 -107 -8 -2 -49 -11 -90 -20 -41 -9
-93 -18 -115 -20 -22 -1 -40 -4 -40 -5 0 -10 -353 -14 -455 -6 -30 3 -55 6
-55 7 0 1 -14 2 -30 4 -25 2 -90 13 -115 20 -3 1 -25 5 -50 10 -50 10 -57 11
-67 15 -5 2 -12 4 -18 5 -57 13 -75 19 -75 25 0 8 97 107 146 150 92 80 326
240 350 240 7 0 14 3 16 8 4 8 103 58 136 67 12 4 22 11 22 16 0 5 3 8 8 7 6
-2 74 20 127 42 28 12 145 48 175 55 14 3 54 12 90 20 60 13 115 23 180 30 14
2 25 4 25 5 0 0 38 3 85 6 47 3 86 6 87 7 2 3 146 -2 228 -7z m-3580 -739 c17
-3 59 -9 95 -13 36 -3 67 -7 70 -9 3 -2 24 -6 46 -9 22 -4 50 -9 62 -11 24 -5
27 -6 123 -28 93 -22 264 -81 366 -126 106 -46 247 -121 251 -133 2 -4 8 -8
14 -8 14 0 150 -95 187 -131 17 -16 34 -29 39 -29 4 0 57 -51 117 -112 207
-214 361 -452 483 -743 37 -90 110 -296 117 -335 2 -8 4 -15 5 -15 2 0 1 4 34
-140 14 -60 26 -119 26 -131 0 -11 3 -24 6 -27 4 -4 8 -21 10 -39 6 -66 14
-131 18 -137 25 -41 26 -778 1 -821 -1 -3 -6 -32 -9 -65 -16 -142 -101 -471
-159 -615 -8 -19 -20 -51 -27 -70 -30 -78 -133 -272 -203 -382 -73 -114 -228
-329 -264 -366 -10 -10 -36 -40 -58 -67 -79 -99 -352 -363 -460 -446 -16 -13
-32 -26 -35 -29 -3 -3 -23 -19 -45 -35 -22 -17 -42 -32 -45 -36 -7 -8 -197
-140 -237 -164 -98 -60 -198 -118 -202 -116 -2 2 -7 -1 -10 -6 -13 -17 -190
-106 -385 -193 -58 -26 -225 -90 -246 -95 -8 -2 -28 -9 -45 -16 -16 -7 -34
-13 -40 -14 -5 -1 -32 -9 -60 -18 -27 -9 -54 -17 -60 -18 -5 -1 -21 -6 -35
-11 -14 -6 -34 -12 -45 -13 -11 -2 -45 -11 -75 -20 -30 -8 -66 -18 -80 -20
-32 -6 -54 -11 -113 -24 -26 -6 -64 -14 -83 -17 -20 -3 -46 -8 -58 -10 -23 -5
-75 -13 -121 -19 -16 -2 -46 -6 -65 -9 -222 -38 -807 -38 -1020 0 -14 2 -41 7
-60 9 -19 3 -62 10 -95 15 -33 6 -71 12 -85 14 -14 3 -25 5 -25 6 0 1 -9 3
-20 4 -11 2 -47 9 -80 16 -80 17 -78 16 -95 22 -8 3 -67 20 -130 37 -110 31
-240 74 -325 108 -165 67 -204 84 -323 145 -129 65 -264 146 -303 180 -15 13
-39 34 -55 48 -47 41 -144 152 -176 202 -34 52 -86 150 -107 201 -43 106 -41
97 -66 232 -15 79 -11 390 5 390 2 0 6 16 14 60 3 17 15 55 27 85 11 30 21 61
22 68 0 6 4 12 9 12 4 0 8 6 8 13 0 33 139 265 205 342 14 17 46 53 69 80 24
28 57 66 72 85 16 19 35 41 42 48 7 8 25 30 40 50 15 21 29 39 33 42 3 3 25
32 50 65 24 33 46 62 49 65 9 8 84 120 95 141 5 10 13 19 17 19 5 0 8 5 8 11
0 5 17 36 37 67 101 153 365 652 346 652 -5 0 -3 4 2 8 10 6 43 75 135 277 72
157 84 184 123 265 22 47 41 87 42 90 2 9 134 280 207 425 74 149 173 318 189
323 5 2 9 9 9 15 0 7 16 30 35 51 19 22 35 43 35 47 0 13 237 249 249 249 7 0
9 5 6 10 -3 6 -3 10 2 10 4 0 22 11 38 25 41 34 43 35 105 80 30 22 57 43 58
47 2 5 7 8 12 8 5 0 46 23 91 51 70 44 233 131 249 134 3 1 31 13 62 28 102
47 392 142 468 152 14 2 32 6 40 9 8 3 32 8 54 11 21 3 41 7 45 9 3 2 31 7 61
11 30 3 66 8 80 10 14 2 59 7 100 11 41 3 76 7 78 9 5 5 409 -2 437 -8z"/>
</g>
</svg>
